HIERARCHY
ROOT Hips
{
	OFFSET 0.000000 0.000000 0.000000
	CHANNELS 6 Xposition Yposition Zposition Zrotation Yrotation Xrotation 
	JOINT LeftUpLeg_virtual
	{
		OFFSET 0.000000 0.000000 0.000000
		CHANNELS 3 Zrotation Yrotation Xrotation
		JOINT LeftUpLeg
		{
			OFFSET 8.479694 -4.795517 -0.379053
			CHANNELS 3 Zrotation Yrotation Xrotation
			JOINT LeftLeg
			{
				OFFSET 0.485052 -32.551468 0.112863
				CHANNELS 3 Zrotation Yrotation Xrotation
				JOINT LeftFoot
				{
					OFFSET 0.438033 -32.635670 -3.012641
					CHANNELS 3 Zrotation Yrotation Xrotation
					JOINT LeftToeBase
					{
						OFFSET 0.970169 -13.225353 11.864223
						CHANNELS 3 Zrotation Yrotation Xrotation
						End Site
						{
							OFFSET 0.000000 0.000000 0.000000
						}
					}
				}
			}
		}
	}
	JOINT RightUpLeg_virtual
	{
		OFFSET 0.000000 0.000000 0.000000
		CHANNELS 3 Zrotation Yrotation Xrotation
		JOINT RightUpLeg
		{
			OFFSET -8.479694 -4.795517 -0.379053
			CHANNELS 3 Zrotation Yrotation Xrotation
			JOINT RightLeg
			{
				OFFSET -0.484100 -32.551483 0.112903
				CHANNELS 3 Zrotation Yrotation Xrotation
				JOINT RightFoot
				{
					OFFSET -0.438985 -32.635651 -3.012681
					CHANNELS 3 Zrotation Yrotation Xrotation
					JOINT RightToeBase
					{
						OFFSET -0.970169 -13.225354 11.864223
						CHANNELS 3 Zrotation Yrotation Xrotation
						End Site
						{
							OFFSET 0.000000 0.000000 0.000000
						}
					}
				}
			}
		}
	}
	JOINT Spine_virtual
	{
		OFFSET 0.000000 0.000000 0.000000
		CHANNELS 3 Zrotation Yrotation Xrotation
		JOINT Spine
		{
			OFFSET 0.000000 7.722015 1.166203
			CHANNELS 3 Zrotation Yrotation Xrotation
			JOINT Spine1
			{
				OFFSET 0.000000 12.024086 0.248766
				CHANNELS 3 Zrotation Yrotation Xrotation
				JOINT Spine2
				{
					OFFSET -0.000000 11.503036 -0.491240
					CHANNELS 3 Zrotation Yrotation Xrotation
					JOINT Neck_virtual
					{
						OFFSET 0.000000 0.000000 0.000000
						CHANNELS 3 Zrotation Yrotation Xrotation
						JOINT Neck
						{
							OFFSET 0.000000 18.430687 -3.123054
							CHANNELS 3 Zrotation Yrotation Xrotation
							JOINT Head
							{
								OFFSET -0.000000 9.051071 1.034021
								CHANNELS 3 Zrotation Yrotation Xrotation
								End Site
								{
									OFFSET 0.000000 0.000000 0.000000
								}
							}
						}
					}
					JOINT LeftShoulder_virtual
					{
						OFFSET 0.000000 0.000000 0.000000
						CHANNELS 3 Zrotation Yrotation Xrotation
						JOINT LeftShoulder
						{
							OFFSET 6.197824 13.665230 -4.064723
							CHANNELS 3 Zrotation Yrotation Xrotation
							JOINT LeftArm
							{
								OFFSET 7.778132 -0.187073 -1.709282
								CHANNELS 3 Zrotation Yrotation Xrotation
								JOINT LeftForeArm
								{
									OFFSET 21.954697 0.000000 -2.041093
									CHANNELS 3 Zrotation Yrotation Xrotation
									JOINT LeftHand
									{
										OFFSET 22.992908 0.000000 -0.870901
										CHANNELS 3 Zrotation Yrotation Xrotation
										End Site
										{
											OFFSET 0.000000 0.000000 0.000000
										}
									}
								}
							}
						}
					}
					JOINT RightShoulder_virtual
					{
						OFFSET 0.000000 0.000000 0.000000
						CHANNELS 3 Zrotation Yrotation Xrotation
						JOINT RightShoulder
						{
							OFFSET -6.197824 13.665230 -4.064723
							CHANNELS 3 Zrotation Yrotation Xrotation
							JOINT RightArm
							{
								OFFSET -7.778132 -0.187073 -1.709282
								CHANNELS 3 Zrotation Yrotation Xrotation
								JOINT RightForeArm
								{
									OFFSET -21.954697 0.000000 -2.041093
									CHANNELS 3 Zrotation Yrotation Xrotation
									JOINT RightHand
									{
										OFFSET -22.992908 0.000000 -0.870901
										CHANNELS 3 Zrotation Yrotation Xrotation
										End Site
										{
											OFFSET 0.000000 0.000000 0.000000
										}
									}
								}
							}
						}
					}
				}
			}
		}
	}
}
MOTION
Frames: 5
Frame Time: 0.033333
-9.633644 81.355881 -28.825829 179.705228 -6.712981 179.979036 -1.713344 1.180843 15.075752 5.853747 -3.982278 -23.032504 1.613425 4.310482 25.841999 -3.512073 -9.779373 -15.790998 0.000000 0.000000 0.000000 2.637205 -1.415247 15.590906 -4.438593 -1.951918 -22.134375 -0.152570 4.318413 30.251246 10.331509 3.100571 -13.395765 0.000000 0.000000 0.000000 3.261287 2.731044 2.763600 -1.895896 -2.566649 -6.922825 -0.323198 -2.360768 7.948208 0.026733 -0.007995 -0.000008 -0.375563 -0.846051 8.517749 -1.376577 4.461058 -3.968956 0.000000 0.000000 0.000000 1.224359 -0.286989 5.473163 -14.939437 -6.412938 3.000078 -48.829658 -27.453529 12.092619 4.809171 -30.700314 6.258989 0.000000 0.000000 0.000000 -3.392415 1.292611 4.630721 31.987053 5.365561 9.319768 41.669895 17.196010 13.126927 -0.834686 28.890604 -0.554921 0.000000 0.000000 0.000000 
-9.659328 81.362114 -28.875048 179.559021 -6.468498 179.985484 -1.526859 1.484728 15.048389 5.581421 -3.890486 -23.006630 1.485569 4.941083 25.387166 -4.204999 -10.270703 -16.085679 0.000000 0.000000 0.000000 2.535182 -2.203295 15.522199 -4.273042 -2.564628 -22.013175 -0.264731 3.779796 30.441012 9.862622 2.533887 -13.922059 0.000000 0.000000 0.000000 3.184313 2.780474 2.817094 -1.961813 -2.591282 -6.900522 -0.319106 -2.309979 8.131263 0.036225 0.023236 0.021587 -0.292221 -0.759585 8.452041 -1.333622 4.405214 -3.906388 0.000000 0.000000 0.000000 1.268347 -0.190030 5.469995 -15.011672 -6.360699 3.060310 -49.766640 -25.927625 13.584735 4.680907 -30.091344 6.461380 0.000000 0.000000 0.000000 -3.294447 1.304909 4.585083 31.983962 5.055686 9.142449 41.996859 15.935415 12.993730 -0.826141 27.923868 -0.456418 0.000000 0.000000 0.000000 
-9.700941 81.349174 -28.978868 179.436856 -6.494385 -179.939858 -1.615806 1.399670 15.010937 5.523149 -3.858132 -22.948264 1.399199 4.863274 25.408205 -4.013089 -10.256546 -16.128426 0.000000 0.000000 0.000000 2.460717 -2.313866 15.429117 -4.338683 -2.471665 -21.971380 -0.276659 3.865482 30.573491 9.899834 2.456826 -14.047971 0.000000 0.000000 0.000000 3.123900 2.735195 2.847775 -1.951982 -2.614676 -6.792648 -0.236829 -2.298920 8.064789 0.107955 -0.018293 -0.032290 -0.402233 -0.847458 8.611067 -1.380063 4.279297 -4.056677 0.000000 0.000000 0.000000 1.228825 -0.147012 5.591154 -14.809184 -6.347228 3.088386 -51.050780 -23.119325 15.454114 4.867225 -29.105448 6.219691 0.000000 0.000000 0.000000 -3.359680 1.405696 4.759660 31.766506 4.572118 9.182373 42.516773 14.093103 12.185398 -1.027863 26.702976 -0.634986 0.000000 0.000000 0.000000 
-9.740754 81.336533 -29.112341 179.550565 -6.486078 -179.952563 -1.500615 1.434573 15.093665 5.481453 -3.765564 -22.902726 1.387633 4.789285 25.374586 -4.005121 -10.288231 -16.181357 0.000000 0.000000 0.000000 2.532479 -2.232012 15.520879 -4.319748 -2.297330 -21.905173 -0.270196 3.878152 30.519744 9.880674 2.267194 -14.105824 0.000000 0.000000 0.000000 3.287347 2.797507 2.960925 -1.808728 -2.585975 -6.718172 -0.274059 -2.196721 8.046474 0.043244 0.010106 -0.010958 -0.317702 -0.699207 8.592910 -1.270624 4.086009 -4.243506 0.000000 0.000000 0.000000 1.305182 -0.229752 5.630060 -14.302297 -6.305921 3.132405 -52.369987 -19.879802 16.879231 4.971921 -27.632276 6.182187 0.000000 0.000000 0.000000 -3.304087 1.388683 4.804970 31.434935 3.856283 9.086950 43.153583 11.885925 10.976002 -1.261697 25.449874 -0.957902 0.000000 0.000000 0.000000 
-9.761521 81.330894 -29.221766 179.553884 -6.418763 -179.953205 -1.455231 1.473190 15.233192 5.407096 -3.737685 -22.912699 1.392802 4.763431 25.312958 -3.981383 -10.280624 -16.219717 0.000000 0.000000 0.000000 2.580932 -2.167452 15.638671 -4.355139 -2.121314 -21.927113 -0.298586 3.928997 30.519225 9.901282 2.075998 -14.182916 0.000000 0.000000 0.000000 3.323394 2.780596 3.112729 -1.702914 -2.589044 -6.552180 -0.256943 -2.147268 7.959575 0.082541 0.005421 -0.023010 -0.392607 -0.817510 8.568467 -1.356002 3.942902 -4.527888 0.000000 0.000000 0.000000 1.264896 -0.046085 5.608785 -13.765623 -6.363318 3.253818 -53.453856 -16.405498 17.570919 5.310067 -25.770671 5.860122 0.000000 0.000000 0.000000 -3.362850 1.506701 4.840830 30.812185 3.220889 8.985264 43.971026 9.513946 9.409927 -1.579242 24.192670 -1.362501 0.000000 0.000000 0.000000 
